<svg xmlns="http://www.w3.org/2000/svg" viewBox="0 0 32 32" role="img" aria-label="G K Ooi & Associates">
  <rect width="32" height="32" rx="7" fill="#1f3a5f"/>
  <g transform="translate(5.5 5)" fill="none" stroke="#ffffff" stroke-width="1.8" stroke-linecap="round" stroke-linejoin="round">
    <path d="M15 4.2C12.2 4.2 11.2 3 9 3 6.7 3 5.3 4.6 5 7c-.3 2.4.6 4.5 1.3 7.2.4 1.9.6 3.8 1 5.6.2 1.3.5 2.4 1.3 2.4.9 0 1.1-1.3 1.3-2.7.2-1.2.4-2.4 1.3-2.4s1.1 1.2 1.3 2.4c.2 1.4.4 2.7 1.3 2.7.8 0 1.1-1.1 1.3-2.4.4-1.8.6-3.7 1-5.6.7-2.7 1.6-4.8 1.3-7.2-.3-2.4-1.7-4-4-4-2.2 0-3.2 1.2-6 1.2z"/>
  </g>
</svg>
